<svg width="1920" height="1080" viewBox="0 0 1920 1080" xmlns="http://www.w3.org/2000/svg"><rect width="1920" height="1080" fill="#cb7ee7"/><path d="M 0,1080 C 0,1080 0,216 0,216 C 82.39285714285717,216.64285714285714 164.78571428571433,217.28571428571428 364,196 C 563.2142857142857,174.71428571428572 879.25,131.5 1034,152 C 1188.75,172.5 1182.2142857142858,256.7142857142857 1303,278 C 1423.7857142857142,299.2857142857143 1671.892857142857,257.6428571428571 1920,216 C 1920,216 1920,1080 1920,1080 Z" fill="#6e2791" opacity="0.12"/><path d="M 0,1080 C 0,1080 0,432 0,432 C 177.35714285714283,440.17857142857144 354.71428571428567,448.35714285714283 544,459 C 733.2857142857143,469.64285714285717 934.5000000000002,482.75 1081,466 C 1227.4999999999998,449.25 1319.2857142857142,402.64285714285717 1450,392 C 1580.7142857142858,381.35714285714283 1750.357142857143,406.67857142857144 1920,432 C 1920,432 1920,1080 1920,1080 Z" fill="#6e2791" opacity="0.24"/><path d="M 0,1080 C 0,1080 0,648 0,648 C 92.28571428571428,645.4285714285714 184.57142857142856,642.8571428571429 353,628 C 521.4285714285714,613.1428571428571 766,586.0000000000001 937,571 C 1108,555.9999999999999 1205.4285714285713,553.1428571428571 1357,568 C 1508.5714285714287,582.8571428571429 1714.2857142857142,615.4285714285714 1920,648 C 1920,648 1920,1080 1920,1080 Z" fill="#6e2791" opacity="0.36"/><path d="M 0,1080 C 0,1080 0,864 0,864 C 218,843.7857142857142 436,823.5714285714286 585,821 C 734,818.4285714285714 814,833.5 929,826 C 1044,818.5 1194.0000000000002,788.4285714285714 1365,791 C 1535.9999999999998,793.5714285714286 1728,828.7857142857142 1920,864 C 1920,864 1920,1080 1920,1080 Z" fill="#6e2791" opacity="0.48"/></svg>