<svg width="1080" height="1080" viewBox="0 0 1080 1080" xmlns="http://www.w3.org/2000/svg"><rect width="1080" height="1080" fill="#cb7ee7"/><path d="M 0,1080 C 0,1080 0,216 0,216 C 45.10714285714286,217.21428571428572 90.21428571428572,218.42857142857142 170,209 C 249.78571428571428,199.57142857142858 364.25,179.50000000000003 455,184 C 545.75,188.49999999999997 612.7857142857143,217.57142857142858 713,227 C 813.2142857142857,236.42857142857142 946.6071428571429,226.21428571428572 1080,216 C 1080,216 1080,1080 1080,1080 Z" fill="#6e2791" opacity="0.12"/><path d="M 0,1080 C 0,1080 0,432 0,432 C 94.42857142857142,435 188.85714285714283,438 300,459 C 411.14285714285717,480 538.9999999999999,519 640,500 C 741.0000000000001,480.99999999999994 815.1428571428571,404.00000000000006 884,383 C 952.8571428571429,361.99999999999994 1016.4285714285714,397 1080,432 C 1080,432 1080,1080 1080,1080 Z" fill="#6e2791" opacity="0.24"/><path d="M 0,1080 C 0,1080 0,648 0,648 C 107.57142857142858,648.5714285714286 215.14285714285717,649.1428571428571 324,666 C 432.85714285714283,682.8571428571429 543.0000000000001,716 602,701 C 660.9999999999999,686 668.8571428571428,622.8571428571429 740,606 C 811.1428571428572,589.1428571428571 945.5714285714287,618.5714285714286 1080,648 C 1080,648 1080,1080 1080,1080 Z" fill="#6e2791" opacity="0.36"/><path d="M 0,1080 C 0,1080 0,864 0,864 C 40.64285714285714,860.75 81.28571428571428,857.5 183,873 C 284.7142857142857,888.5 447.5,922.7499999999999 567,916 C 686.5,909.2500000000001 762.7142857142858,861.5000000000001 841,846 C 919.2857142857142,830.4999999999999 999.6428571428571,847.25 1080,864 C 1080,864 1080,1080 1080,1080 Z" fill="#6e2791" opacity="0.48"/></svg>